<mxfile host="app.diagrams.net" modified="2024-04-20T15:48:59.412Z" agent="Mozilla/5.0 (Macintosh; Intel Mac OS X 10_15_7) AppleWebKit/605.1.15 (KHTML, like Gecko) Version/16.2 Safari/605.1.15" version="24.2.7" etag="9g-buJYQBu_VOKyxNN2H" type="github">
  <diagram name="Страница — 1" id="fgQl_cuq5y5TTEzzBXnN">
    <mxGraphModel>
      <root>
        <mxCell id="0" />
        <mxCell id="1" parent="0" />
      </root>
    </mxGraphModel>
  </diagram>
</mxfile>
